<?xml version="1.0" encoding="utf-8"?>
<!-- Generator: Adobe Illustrator 24.0.1, SVG Export Plug-In . SVG Version: 6.00 Build 0)  -->
<svg version="1.1" id="Capa_1" xmlns="http://www.w3.org/2000/svg" xmlns:xlink="http://www.w3.org/1999/xlink" x="0px" y="0px"
	 viewBox="0 0 512 512" style="enable-background:new 0 0 512 512;" xml:space="preserve">
<style type="text/css">
	.st0{fill:#FFFFFF;}
</style>
<g>
	<g>
		<path class="st0" d="M315.9,88.3l-19.3-72.2c-1.5-5.6-5.1-10.3-10.1-13.2s-10.9-3.7-16.5-2.2l-72.2,19.3
			c-11.6,3.1-18.5,15-15.4,26.6l19.3,72.2c1.5,5.6,5.1,10.3,10.1,13.2c3.3,1.9,7.1,2.9,10.8,2.9c1.9,0,3.8-0.2,5.7-0.8l72.2-19.3
			C312.1,111.8,319,99.9,315.9,88.3z M296.6,100.4l-72.2,19.3c-1.7,0.5-3.5,0.2-5.1-0.7c-1.6-0.9-2.7-2.3-3.1-4.1l-19.3-72.2
			c-1-3.6,1.2-7.3,4.8-8.2l72.2-19.3c1.7-0.5,3.5-0.2,5.1,0.7c1.6,0.9,2.7,2.3,3.1,4.1l19.3,72.2C302.3,95.8,300.2,99.5,296.6,100.4
			z"/>
	</g>
</g>
<g>
	<g>
		<circle class="st0" cx="224.6" cy="53.4" r="7.5"/>
	</g>
</g>
<g>
	<g>
		<circle class="st0" cx="263.2" cy="43" r="7.5"/>
	</g>
</g>
<g>
	<g>
		<circle class="st0" cx="229.8" cy="72.7" r="7.5"/>
	</g>
</g>
<g>
	<g>
		<circle class="st0" cx="268.4" cy="62.3" r="7.5"/>
	</g>
</g>
<g>
	<g>
		<circle class="st0" cx="235" cy="92" r="7.5"/>
	</g>
</g>
<g>
	<g>
		<circle class="st0" cx="273.6" cy="81.7" r="7.5"/>
	</g>
</g>
<g>
	<g>
		<path class="st0" d="M250.5,143.1l-19-5.1c-0.2-0.1-0.5-0.1-0.7-0.2c-0.4-0.1-0.8-0.1-1.2-0.1c-3.4,0-6.4,2.3-7.2,5.6
			c-0.2,0.6-0.3,1.3-0.3,2c0,3.4,2.3,6.4,5.6,7.2l19,5.1c2.9,0.8,5,3.4,5,6.5c0,0.6-0.1,1.2-0.2,1.8L232,238c-0.8,2.9-3.4,5-6.5,5
			c-0.6,0-1.2-0.1-1.8-0.2l-72.2-19.4c-2.9-0.8-5-3.4-5-6.5c0-0.6,0.1-1.2,0.2-1.8l19.4-72.2c0.8-2.9,3.4-5,6.5-5
			c0.6,0,1.2,0.1,1.8,0.2l24.2,6.5c0.6,0.2,1.3,0.3,1.9,0.3c3.4,0,6.4-2.3,7.2-5.6c0.5-1.9,0.2-4-0.8-5.7c-1-1.7-2.6-3-4.5-3.5
			c0,0,0,0,0,0l-24.2-6.5c-1.8-0.5-3.7-0.8-5.6-0.8h0c-9.8,0-18.4,6.6-21,16.1l-19.4,72.2c-0.5,1.9-0.8,3.7-0.7,5.6
			c0,9.8,6.6,18.4,16.1,21l72.2,19.4c1.8,0.5,3.7,0.7,5.6,0.7h0c9.8,0,18.4-6.6,21-16.1l19.3-72.2c0.5-1.8,0.8-3.7,0.8-5.6
			C266.6,154.3,260,145.7,250.5,143.1z"/>
	</g>
</g>
<g>
	<g>
		<circle class="st0" cx="185" cy="166" r="7.5"/>
	</g>
</g>
<g>
	<g>
		<circle class="st0" cx="223.6" cy="176.4" r="7.5"/>
	</g>
</g>
<g>
	<g>
		<circle class="st0" cx="174.6" cy="204.7" r="7.5"/>
	</g>
</g>
<g>
	<g>
		<circle class="st0" cx="213.2" cy="215" r="7.5"/>
	</g>
</g>
<g>
	<g>
		<path class="st0" d="M390.7,228.8c-0.3,0-0.6,0-0.9,0c-6.4-12.2-19.1-20-33.2-20c-5.3,0-10.4,1.1-15,3.1c-4.7-2.1-9.8-3.1-15-3.1
			c-14.4,0-27,8.2-33.2,20.1c-16.7,1.4-30.2,13.8-33.5,29.9h-25.3c0,0-0.1,0-0.1,0c-29.7,0.5-57.1,12.9-77.1,34.2
			c-19.5,20.7-30.2,47.8-30.2,76.2c0,9-3.5,17.5-9.9,23.9l-30.1,30.2c-2.9,2.9-2.9,7.7,0,10.6c2.9,2.9,7.7,2.9,10.6,0l30.1-30.2
			c9.2-9.2,14.3-21.5,14.3-34.5c0-51.9,40.6-94.5,92.6-95.4h69.9c12.4,0,22.5,10.1,22.5,22.5s-10.1,22.5-22.5,22.5h-0.7
			c-16.2,0-31.6,5.1-44.7,14.6c0,0,0,0,0,0c-3.2,2.3-6.2,4.9-8.9,7.6c-2.8,2.9-2.9,7.4-0.2,10.4c2.7,3,7.3,3.2,10.4,0.6l3.8-3.3
			c49.3,27.7,102.8-3.8,102.8-52.4v-30c0-11.4,8.4-20.5,18.8-22.2c0.2,0,0.3,0,0.5-0.1c1.3-0.2,2.5-0.3,3.9-0.2
			c12.1,0.3,21.9,10.7,21.9,23.1v40.7c0,27.5-10.4,53.6-29.2,73.7c-39.1,38.6-84.7,65.5-135.5,80c-18.4,5.3-35.4,15.2-49,28.9l-9,9
			c-2.9,2.9-2.9,7.7,0,10.6c1.5,1.5,3.4,2.2,5.3,2.2c1.9,0,3.8-0.7,5.3-2.2l9-9c11.8-11.8,26.5-20.5,42.5-25.1
			c53.3-15.2,101.1-43.4,142.1-83.9c0.1-0.1,0.1-0.1,0.2-0.2c21.5-22.8,33.4-52.7,33.4-84.1v-40.7
			C427.1,246.5,410.8,229.4,390.7,228.8z M289.1,246.3v12.5h-13.7c2.3-6.4,7.3-11.5,13.7-13.7C289.1,245.5,289.1,245.9,289.1,246.3z
			 M319.1,246.3v15.4c-4.5-1.9-9.4-2.9-14.5-2.9h-0.5v-12.5c0-12.4,10.1-22.5,22.5-22.5c0,0,0,0,0,0
			C321.9,230.1,319.1,237.9,319.1,246.3z M352.1,266.3v30c0,25.9-21,47.5-47.5,47.5c-8.7,0-16.6-1-25.6-4.7
			c7.8-3.5,16.2-5.3,24.9-5.3h0.7c20.7,0,37.5-16.8,37.5-37.5c0-8.7-3-16.8-8-23.1v-26.9c0-12.4,10.1-22.5,22.5-22.5
			c6.9,0,13.3,3.2,17.5,8.3C361.6,237.8,352.1,250.6,352.1,266.3z"/>
	</g>
</g>
</svg>
