<?xml version="1.0" encoding="utf-8"?>
<!-- Generator: Adobe Illustrator 24.0.1, SVG Export Plug-In . SVG Version: 6.00 Build 0)  -->
<svg version="1.1" id="Outline" xmlns="http://www.w3.org/2000/svg" xmlns:xlink="http://www.w3.org/1999/xlink" x="0px" y="0px"
	 viewBox="0 0 512 512" style="enable-background:new 0 0 512 512;" xml:space="preserve">
<style type="text/css">
	.st0{fill:#FFFFFF;}
</style>
<g>
	<path class="st0" d="M32,456c0,22.1,17.9,40,40,40h296c61.9,0,112-50.1,112-112c0-43.3-24.9-82.7-64-101.2V120
		c0-2.1-0.8-4.2-2.3-5.7l-96-96c-1.5-1.5-3.5-2.3-5.7-2.3H72c-22.1,0-40,17.9-40,40V456z M464,384c0,53-43,96-96,96s-96-43-96-96
		s43-96,96-96C421,288.1,463.9,331,464,384z M320,43.3l68.7,68.7H344c-13.2,0-24-10.8-24-24V43.3z M48,56c0-13.2,10.8-24,24-24h232
		v56c0,22.1,17.9,40,40,40h56v148.7c-59.3-17.7-121.6,16-139.3,75.3c-14.6,49,5.8,101.7,49.7,128H72c-13.2,0-24-10.8-24-24L48,56z"
		/>
	<path class="st0" d="M160,168c0,4.4,3.6,8,8,8h192c4.4,0,8-3.6,8-8s-3.6-8-8-8H168C163.6,160,160,163.6,160,168z"/>
	<path class="st0" d="M88,224h160c4.4,0,8-3.6,8-8s-3.6-8-8-8H88c-4.4,0-8,3.6-8,8S83.6,224,88,224z"/>
	<path class="st0" d="M280,256h-64c-4.4,0-8,3.6-8,8s3.6,8,8,8h64c4.4,0,8-3.6,8-8S284.4,256,280,256z"/>
	<path class="st0" d="M88,320h144c4.4,0,8-3.6,8-8s-3.6-8-8-8H88c-4.4,0-8,3.6-8,8S83.6,320,88,320z"/>
	<path class="st0" d="M88,176h48c4.4,0,8-3.6,8-8s-3.6-8-8-8H88c-4.4,0-8,3.6-8,8S83.6,176,88,176z"/>
	<path class="st0" d="M360,208h-80c-4.4,0-8,3.6-8,8s3.6,8,8,8h80c4.4,0,8-3.6,8-8S364.4,208,360,208z"/>
	<path class="st0" d="M88,272h96c4.4,0,8-3.6,8-8s-3.6-8-8-8H88c-4.4,0-8,3.6-8,8S83.6,272,88,272z"/>
	<path class="st0" d="M216,400h-32c-4.4,0-8,3.6-8,8s3.6,8,8,8h32c4.4,0,8-3.6,8-8S220.4,400,216,400z"/>
	<path class="st0" d="M88,416h64c4.4,0,8-3.6,8-8s-3.6-8-8-8H88c-4.4,0-8,3.6-8,8S83.6,416,88,416z"/>
	<path class="st0" d="M88,368h48c4.4,0,8-3.6,8-8s-3.6-8-8-8H88c-4.4,0-8,3.6-8,8S83.6,368,88,368z"/>
	<path class="st0" d="M88,128h96c4.4,0,8-3.6,8-8s-3.6-8-8-8H88c-4.4,0-8,3.6-8,8S83.6,128,88,128z"/>
	<path class="st0" d="M216,352h-48c-4.4,0-8,3.6-8,8s3.6,8,8,8h48c4.4,0,8-3.6,8-8S220.4,352,216,352z"/>
	<path class="st0" d="M322.9,329.9c-3.4,2.8-3.9,7.9-1,11.3c0,0,0,0,0,0c0,0,30.3,36.4,40,48c1,1.2,2.6,2.5,5.3,2.9
		c0.3,0,0.6,0,0.8,0h56c4.4,0,8-3.6,8-8s-3.6-8-8-8h-52.3l-37.6-45.1C331.3,327.5,326.3,327,322.9,329.9z"/>
</g>
</svg>
